<?xml version="1.0" standalone="no"?><!DOCTYPE svg PUBLIC "-//W3C//DTD SVG 1.1//EN" "http://www.w3.org/Graphics/SVG/1.1/DTD/svg11.dtd"><svg t="1613378473781" class="icon" viewBox="0 0 1109 1024" version="1.1" xmlns="http://www.w3.org/2000/svg" p-id="2170" xmlns:xlink="http://www.w3.org/1999/xlink" width="216.6015625" height="200"><defs><style type="text/css"></style></defs><path d="M655.356 82.088c112.722 0 204.494 92.161 204.494 205.467s-91.772 205.48-204.494 205.48-204.494-92.16-204.494-205.48 91.72-205.467 204.494-205.467m0-81.776C497.24 0.299 369.073 128.882 369.073 287.568s128.168 287.27 286.283 287.27 286.296-128.584 286.296-287.27S813.47 0.298 655.356 0.298z m0 0" fill="#222222" p-id="2171"></path><path d="M655.356 576.227c-180.428 0-327.185 147.315-327.185 328.496v77.13a40.901 40.901 0 0 1-40.901 40.9 40.888 40.888 0 0 1-40.901-40.9v-77.117c0-226.249 183.465-410.299 408.974-410.299M258.142 547.19a51.675 51.675 0 0 1-7.114-0.571 205.39 205.39 0 0 1-81.88-369.942 202.365 202.365 0 0 1 152.896-34.048 40.901 40.901 0 0 1-14.278 80.4 122.21 122.21 0 0 0-91.616 20.445 123.6 123.6 0 0 0 49.04 222.523 40.901 40.901 0 0 1-7.035 81.219z m0 0" fill="#222222" p-id="2172"></path><path d="M41.07 883.214A40.901 40.901 0 0 1 0.17 842.313v-58.165c0-175.755 142.187-318.397 317.942-318.839a40.901 40.901 0 1 1 0 81.777A236.893 236.893 0 0 0 81.958 784.148V842.3a40.888 40.888 0 0 1-40.9 40.901z m0 0M1012.266 726.904H769.584q-51.922 0-51.922-51.922 0-51.921 51.922-51.921h242.682q51.921 0 51.921 51.921 0 51.922-51.921 51.922zM1057.697 959.254H718.908q-51.922 0-51.922-51.922t51.922-51.922h338.79q51.92 0 51.92 51.922t-51.92 51.922z" fill="#222222" p-id="2173"></path></svg>