<?xml version="1.0" standalone="no"?><!DOCTYPE svg PUBLIC "-//W3C//DTD SVG 1.1//EN" "http://www.w3.org/Graphics/SVG/1.1/DTD/svg11.dtd"><svg t="1609679535029" class="icon" viewBox="0 0 1024 1024" version="1.1" xmlns="http://www.w3.org/2000/svg" p-id="4063" xmlns:xlink="http://www.w3.org/1999/xlink" width="200" height="200"><defs><style type="text/css"></style></defs><path d="M795.528431 124.065469 676.126148 124.065469 676.126148 94.224351c0-16.481086-13.360032-29.841118-29.841118-29.841118-16.481086 0-29.841118 13.360032-29.841118 29.841118l0 29.841118L407.556088 124.065469 407.556088 94.224351c0-16.481086-13.360032-29.841118-29.841118-29.841118-16.480064 0-29.841118 13.360032-29.841118 29.841118l0 29.841118L228.471569 124.065469c-49.414643 0-89.485541 40.116886-89.485541 89.544814L138.986028 870.072974c0 49.443257 40.038196 89.543792 89.485541 89.543792l567.05584 0C844.942052 959.616766 885.013972 919.498858 885.013972 870.072974L885.013972 213.610283C885.013972 164.164982 844.976798 124.065469 795.528431 124.065469zM825.331737 870.072974c0 16.492327-13.378427 29.861557-29.803305 29.861557L228.471569 899.934531c-16.460647 0-29.803305-13.352878-29.803305-29.861557L198.668263 213.610283c0-16.492327 13.378427-29.862579 29.803305-29.862579L347.873852 183.747705 347.873852 213.588822c0 16.480064 13.360032 29.841118 29.841118 29.841118 16.481086 0 29.841118-13.361054 29.841118-29.841118l0-29.841118 208.887824 0L616.443912 213.588822c0 16.480064 13.360032 29.841118 29.841118 29.841118 16.480064 0 29.841118-13.361054 29.841118-29.841118l0-29.841118 119.402283 0c16.460647 0 29.803305 13.351856 29.803305 29.862579L825.331737 870.072974z" p-id="4064"></path><path d="M735.808383 377.71497 288.191617 377.71497c-16.480064 0-29.841118 13.360032-29.841118 29.841118 0 16.480064 13.361054 29.841118 29.841118 29.841118l447.616766 0c16.480064 0 29.841118-13.361054 29.841118-29.841118C765.649501 391.075002 752.288447 377.71497 735.808383 377.71497z" p-id="4065"></path><path d="M735.808383 526.920559 288.191617 526.920559c-16.480064 0-29.841118 13.360032-29.841118 29.841118 0 16.480064 13.361054 29.841118 29.841118 29.841118l447.616766 0c16.480064 0 29.841118-13.361054 29.841118-29.841118C765.649501 540.280591 752.288447 526.920559 735.808383 526.920559z" p-id="4066"></path><path d="M735.808383 676.126148 288.191617 676.126148c-16.480064 0-29.841118 13.360032-29.841118 29.841118 0 16.480064 13.361054 29.841118 29.841118 29.841118l447.616766 0c16.480064 0 29.841118-13.361054 29.841118-29.841118C765.649501 689.48618 752.288447 676.126148 735.808383 676.126148z" p-id="4067"></path></svg>