<?xml version="1.0" standalone="no"?><!DOCTYPE svg PUBLIC "-//W3C//DTD SVG 1.1//EN" "http://www.w3.org/Graphics/SVG/1.1/DTD/svg11.dtd"><svg t="1609679582927" class="icon" viewBox="0 0 1024 1024" version="1.1" xmlns="http://www.w3.org/2000/svg" p-id="4241" xmlns:xlink="http://www.w3.org/1999/xlink" width="200" height="200"><defs><style type="text/css"></style></defs><path d="M544.128 531.648v184.64l192-96v-108.16a32 32 0 1 1 64 0v128a32 32 0 0 1-17.6 28.48l-253.952 127.008a31.84 31.84 0 0 1-32.896 0l-253.952-127.008a32 32 0 0 1-17.6-28.48v-128a32 32 0 1 1 64 0v108.16l192 96V531.84l-238.4-119.2a32 32 0 0 1 0-57.28l256-128a32 32 0 0 1 28.48 0l256 128a32 32 0 0 1 0 57.28l-238.08 119.04z m-216.32-147.52l184.32 92.16 184.32-92.16-184.32-92.16-184.32 92.16z" p-id="4242"></path></svg>