<?xml version="1.0" standalone="no"?><!DOCTYPE svg PUBLIC "-//W3C//DTD SVG 1.1//EN" "http://www.w3.org/Graphics/SVG/1.1/DTD/svg11.dtd"><svg t="1610675505337" class="icon" viewBox="0 0 1024 1024" version="1.1" xmlns="http://www.w3.org/2000/svg" p-id="2374" xmlns:xlink="http://www.w3.org/1999/xlink" width="200" height="200"><defs><style type="text/css"></style></defs><path d="M924.1 337.8c-22.6-53.3-54.8-101.2-96-142.3-41.1-41.1-89-73.4-142.3-96-55.2-23.4-113.9-35.2-174.3-35.2-60.4 0-119.1 11.8-174.3 35.2-53.3 22.6-101.2 54.8-142.3 96s-73.4 89-96 142.3C75.4 393 63.5 451.6 63.5 512.1c0 60.4 11.8 119.1 35.2 174.3 22.6 53.3 54.8 101.2 96 142.3 41.1 41.1 89 73.4 142.3 96 55.3 23.4 114 35.3 174.4 35.3 60.4 0 119.1-11.8 174.3-35.2 53.3-22.6 101.2-54.8 142.3-96 41.1-41.1 73.4-89 96-142.3 23.4-55.2 35.2-113.9 35.2-174.3 0.1-60.6-11.8-119.2-35.1-174.4zM782.8 783.5C710.3 856 613.9 896 511.4 896S312.5 856 240 783.5C167.5 711 127.5 614.6 127.5 512.1s40-198.9 112.5-271.4 168.9-112.4 271.4-112.4 198.9 39.9 271.4 112.4c72.5 72.5 112.4 168.9 112.4 271.4S855.3 711 782.8 783.5z" p-id="2375"></path><path d="M758 349.3c-12.4-12.4-32.8-12.4-45.3 0l-287 287.1L351 507c-8.8-15.2-28.5-20.5-43.7-11.7-15.2 8.8-20.5 28.5-11.7 43.7l93.9 162.6c1.5 3.5 3.7 6.8 6.6 9.7 1.7 1.7 3.6 3.2 5.6 4.4 9.8 6.3 22.7 7.1 33.5 0.9 4.1-2.4 7.5-5.5 10-9.2L758 394.6c12.5-12.5 12.5-32.8 0-45.3z" p-id="2376"></path></svg>