<?xml version="1.0" standalone="no"?><!DOCTYPE svg PUBLIC "-//W3C//DTD SVG 1.1//EN" "http://www.w3.org/Graphics/SVG/1.1/DTD/svg11.dtd"><svg t="1610675420344" class="icon" viewBox="0 0 1145 1024" version="1.1" xmlns="http://www.w3.org/2000/svg" p-id="2806" xmlns:xlink="http://www.w3.org/1999/xlink" width="223.6328125" height="200"><defs><style type="text/css"></style></defs><path d="M453.756599 839.415082c212.549665 0 385.702453-173.108819 385.702453-385.702453S666.361226 68.021169 453.756599 68.021169 68.065139 241.118995 68.065139 453.712629s173.097826 385.702453 385.69146 385.702453m0 68.054147C203.063196 907.469229 0 704.406033 0 453.756599S203.063196 0.032977 453.756599 0.032977s453.712629 203.030218 453.71263 453.723622-203.019226 453.712629-453.71263 453.71263z m0 0" p-id="2807"></path><path d="M453.756599 680.563448a45.387752 45.387752 0 1 1 45.365767-45.376759 45.530653 45.530653 0 0 1-45.387752 45.376759z m2.715131-136.119285h-5.65011a42.573689 42.573689 0 0 1-42.452772-42.628651V269.259621a42.529719 42.529719 0 0 1 42.452772-42.44178h5.65011a42.540712 42.540712 0 0 1 42.650636 42.44178v232.555891a42.518727 42.518727 0 0 1-42.628651 42.628651z m0 0" p-id="2808"></path></svg>