<?xml version="1.0" standalone="no"?><!DOCTYPE svg PUBLIC "-//W3C//DTD SVG 1.1//EN" "http://www.w3.org/Graphics/SVG/1.1/DTD/svg11.dtd"><svg t="1610868373688" class="icon" viewBox="0 0 1024 1024" version="1.1" xmlns="http://www.w3.org/2000/svg" p-id="3276" xmlns:xlink="http://www.w3.org/1999/xlink" width="200" height="200"><defs><style type="text/css"></style></defs><path d="M938.855808 638.776382l0 270.299169c0 27.41028-22.210861 49.634444-49.621141 49.634444l-754.442728 0c-27.41028 0-49.647747-22.224164-49.647747-49.634444L85.144192 638.776382c0-27.41028 22.224164-49.634444 49.634444-49.634444s49.634444 22.224164 49.634444 49.634444l0 220.664725 655.17384 0L839.58692 638.776382c0-27.41028 22.224164-49.634444 49.634444-49.634444S938.855808 611.366102 938.855808 638.776382zM349.445764 351.817788l112.918769-115.288746 0 429.77837c0 27.411303 22.224164 49.634444 49.634444 49.634444 27.41028 0 49.634444-22.223141 49.634444-49.634444L561.633421 236.534158 674.547073 351.812671c9.722432 9.927093 22.591531 14.904455 35.470863 14.904455 12.524245 0 25.071002-4.716418 34.725896-14.172791 19.583011-19.184945 19.913539-50.608631 0.733711-70.190619L547.478026 80.195483c-9.335622-9.535167-22.116717-14.905478-35.46063-14.905478-13.338796 0-26.120914 5.370311-35.456536 14.900362L278.542924 282.3486c-19.184945 19.588127-18.86465 51.010791 0.722454 70.190619C298.847365 371.724163 330.271052 371.394658 349.445764 351.817788z" p-id="3277"></path></svg>