<?xml version="1.0" standalone="no"?><!DOCTYPE svg PUBLIC "-//W3C//DTD SVG 1.1//EN" "http://www.w3.org/Graphics/SVG/1.1/DTD/svg11.dtd"><svg t="1610675636209" class="icon" viewBox="0 0 1024 1024" version="1.1" xmlns="http://www.w3.org/2000/svg" p-id="3129" xmlns:xlink="http://www.w3.org/1999/xlink" width="200" height="200"><defs><style type="text/css"></style></defs><path d="M524.552258 848.929032c184.32 0 333.625806-149.966452 333.625807-333.625806s-149.966452-333.625806-333.625807-333.625807c-184.32 0-333.625806 149.966452-333.625806 333.625807s149.305806 333.625806 333.625806 333.625806m0 48.227097c-210.745806 0-381.852903-171.107097-381.852903-381.852903s171.107097-381.852903 381.852903-381.852903 381.192258 171.107097 381.192258 381.852903-170.446452 381.852903-381.192258 381.852903z" p-id="3130"></path><path d="M377.889032 412.242581c-9.249032-9.249032-9.249032-24.443871 0-33.692904 9.249032-9.249032 24.443871-9.249032 33.692903 0l251.705807 251.705807c9.249032 9.249032 9.249032 24.443871 0 33.692903-9.249032 9.249032-24.443871 9.249032-33.692903 0L377.889032 412.242581" p-id="3131"></path><path d="M636.20129 377.228387c9.249032-9.249032 24.443871-9.249032 33.692904 0 9.249032 9.249032 9.249032 24.443871 0 33.692903l-251.705807 251.705807c-9.249032 9.249032-24.443871 9.249032-33.692903 0-9.249032-9.249032-9.249032-24.443871 0-33.692903l251.705806-251.705807" p-id="3132"></path></svg>