<?xml version="1.0" standalone="no"?><!DOCTYPE svg PUBLIC "-//W3C//DTD SVG 1.1//EN" "http://www.w3.org/Graphics/SVG/1.1/DTD/svg11.dtd"><svg t="1625042873733" class="icon" viewBox="0 0 1024 1024" version="1.1" xmlns="http://www.w3.org/2000/svg" p-id="6563" xmlns:xlink="http://www.w3.org/1999/xlink" width="200" height="200"><defs><style type="text/css"></style></defs><path d="M805.2 906.39H219.36c-13.81 0-25-11.19-25-25s11.19-25 25-25H805.2c13.81 0 25 11.19 25 25s-11.19 25-25 25zM664.44 441.11c-40.45-62.55-81.69-124.62-120.91-187.94-15.44-24.92-47.76-24.12-62.46-0.14-38.92 63.48-80.34 125.43-120.78 187.97-2.09 3.23-4.42 6.3-6.82 9.7-3.37-2.65-5.74-4.38-7.97-6.27-49.81-42.32-99.6-84.66-149.4-126.99-13.95-11.86-27.78-14.19-40.39-6.86-12.4 7.21-17.68 21.36-14.69 38.36 24.75 140.49 49.47 280.98 74.13 421.48 4.53 25.83 14.52 34.41 40.91 34.41 170.77 0.01 341.54 0.01 512.31 0 26.48 0 36.61-8.62 41.07-34.3 24.55-141.27 49.17-282.52 73.76-423.79 2.94-16.88-1.79-28.61-14.49-35.92-12.57-7.23-25.89-5.69-38.58 4.88-14.38 11.99-28.57 24.22-42.82 36.37-38.25 32.63-76.51 65.26-115.99 98.93-2.78-3.99-4.93-6.87-6.88-9.89zM946.9 245.26c0.03-28.51-22.29-50.98-50.73-51.08-28.21-0.09-50.9 22.67-50.88 51.05 0.01 28.62 22.4 51.06 50.86 50.98 28.78-0.08 50.72-22.11 50.75-50.95m-818.43-48.15c-28.56 0.04-50.84 22.47-50.8 51.15 0.04 28.69 22.32 51.03 50.89 51.03 28.52-0.01 50.84-22.45 50.83-51.1-0.02-28.63-22.44-51.12-50.92-51.08z m436.36-30.71c0.31-28.06-22.49-51.01-50.84-51.18-28.41-0.17-51.24 22.3-51.39 50.58-0.15 28.39 22.35 51.03 50.8 51.11 28.65 0.09 51.11-21.97 51.43-50.51z" p-id="6564"></path></svg>