<?xml version="1.0" standalone="no"?><!DOCTYPE svg PUBLIC "-//W3C//DTD SVG 1.1//EN" "http://www.w3.org/Graphics/SVG/1.1/DTD/svg11.dtd"><svg t="1625042767812" class="icon" viewBox="0 0 1024 1024" version="1.1" xmlns="http://www.w3.org/2000/svg" p-id="5544" xmlns:xlink="http://www.w3.org/1999/xlink" width="200" height="200"><defs><style type="text/css"></style></defs><path d="M932.565333 970.837333c0 8.490667-6.826667 15.232-15.189333 15.232H88.32a15.189333 15.189333 0 0 1-14.762667-18.773333 429.909333 429.909333 0 0 1 287.658667-386.986667l133.376 133.418667a11.733333 11.733333 0 0 0 16.554667 0l133.376-133.376c162.048 56.576 279.893333 207.530667 287.658666 386.986667a17.749333 17.749333 0 0 1 0.341334 3.498666zM502.869333 556.373333A257.578667 257.578667 0 1 1 502.826667 41.173333a257.578667 257.578667 0 0 1 0 515.157334z" p-id="5545"></path></svg>