<?xml version="1.0" standalone="no"?><!DOCTYPE svg PUBLIC "-//W3C//DTD SVG 1.1//EN" "http://www.w3.org/Graphics/SVG/1.1/DTD/svg11.dtd"><svg t="1625042705397" class="icon" viewBox="0 0 1024 1024" version="1.1" xmlns="http://www.w3.org/2000/svg" p-id="4717" xmlns:xlink="http://www.w3.org/1999/xlink" width="200" height="200"><defs><style type="text/css"></style></defs><path d="M866.765846 1023.077705 154.388733 1023.077705c-25.658122 0-46.465134-21.134245-46.465134-47.186054l0-47.18404 805.306373 0 0 47.18404C913.228966 1001.94346 892.420947 1023.077705 866.765846 1023.077705zM107.9236 299.559552c0-26.067919 20.808019-47.186054 46.465134-47.186054l123.879502 0c0-130.300325 104.004853-235.928256 232.308551-235.928256 128.285574 0 232.291434 105.628938 232.291434 235.928256L866.765846 252.373498c25.655101 0 46.46312 21.119142 46.46312 47.186054l0 581.958984-805.306373 0L107.922593 299.559552zM649.956077 252.373498c0-78.184625-62.407946-141.557155-139.380298-141.557155-76.973358 0-139.379291 63.371523-139.379291 141.557155L649.956077 252.373498z" p-id="4718"></path></svg>