<?xml version="1.0" standalone="no"?><!DOCTYPE svg PUBLIC "-//W3C//DTD SVG 1.1//EN" "http://www.w3.org/Graphics/SVG/1.1/DTD/svg11.dtd"><svg t="1623895011038" class="icon" viewBox="0 0 1024 1024" version="1.1" xmlns="http://www.w3.org/2000/svg" p-id="4827" xmlns:xlink="http://www.w3.org/1999/xlink" width="200" height="200"><defs><style type="text/css"></style></defs><path d="M930.304 260.096c-11.776-14.336-28.672-22.528-47.104-22.528H244.224l-17.408-111.104c-6.144-37.888-38.4-65.536-76.8-65.536H87.04a34.304 34.304 0 0 0 0 68.608h62.976c4.608 0 8.704 3.072 9.216 7.68l99.328 632.832c6.144 38.4 38.4 66.048 77.312 66.048h467.456a34.304 34.304 0 0 0 0-68.608H336.384c-5.12 0-9.216-3.584-9.728-8.704l-15.872-99.84H824.32c29.184 0 54.272-20.992 59.904-49.664l58.368-300.032c3.584-16.896-1.024-34.816-12.288-49.152z m-111.616 331.264H300.032l-45.056-285.696h619.008l-55.296 285.696z m-386.048 337.408c0 24.576-19.968 44.544-44.544 44.544-24.576 0-44.544-19.968-44.544-44.544s19.968-44.544 44.544-44.544c24.576 0.512 44.544 19.968 44.544 44.544z m336.896 0c0 24.576-19.968 44.544-44.544 44.544-24.576 0-44.544-19.968-44.544-44.544s19.968-44.544 44.544-44.544c24.576 0.512 44.544 19.968 44.544 44.544z" p-id="4828"></path></svg>